<?xml version="1.0" encoding="UTF-8"?>
<!DOCTYPE svg PUBLIC "-//W3C//DTD SVG 1.1//EN" "http://www.w3.org/Graphics/SVG/1.1/DTD/svg11.dtd">
<svg xmlns="http://www.w3.org/2000/svg" version="1.1" width="215px" height="219px" style="shape-rendering:geometricPrecision; text-rendering:geometricPrecision; image-rendering:optimizeQuality; fill-rule:evenodd; clip-rule:evenodd" xmlns:xlink="http://www.w3.org/1999/xlink">
<g><path style="opacity:0.584" fill="#6ab258" d="M 157.5,5.5 C 159.42,6.06521 161.087,7.06521 162.5,8.5C 158.554,7.47309 154.554,7.30643 150.5,8C 146.916,9.07345 143.25,9.74011 139.5,10C 136.931,10.8984 134.598,12.065 132.5,13.5C 131.167,13.5 129.833,13.5 128.5,13.5C 128.5,14.5 128.5,15.5 128.5,16.5C 125.345,16.9769 122.345,17.9769 119.5,19.5C 115.933,21.5566 112.766,24.2232 110,27.5C 109.601,27.2716 109.435,26.9382 109.5,26.5C 117.773,17.1889 128.106,11.1889 140.5,8.5C 146.176,7.27981 151.842,6.27981 157.5,5.5 Z"/></g>
<g><path style="opacity:1" fill="#4bcc2f" d="M 162.5,8.5 C 162.083,12.8346 161.583,17.1679 161,21.5C 160.583,22.756 159.75,23.4226 158.5,23.5C 155.07,23.1065 151.904,23.7732 149,25.5C 147.157,24.7258 145.324,23.2258 143.5,21C 140.812,20.6076 138.145,20.1076 135.5,19.5C 132.739,21.4386 129.739,22.272 126.5,22C 125.549,21.2825 125.383,20.4491 126,19.5C 128.816,18.2008 130.982,16.2008 132.5,13.5C 134.598,12.065 136.931,10.8984 139.5,10C 143.25,9.74011 146.916,9.07345 150.5,8C 154.554,7.30643 158.554,7.47309 162.5,8.5 Z"/></g>
<g><path style="opacity:0.361" fill="#3b4654" d="M 99.5,24.5 C 100.854,20.9683 102.854,17.8016 105.5,15C 84.014,15.2729 65.014,22.2729 48.5,36C 46.2941,38.0367 44.2941,40.2034 42.5,42.5C 39.7629,44.9137 37.0962,47.2471 34.5,49.5C 52.5921,25.9532 76.5921,13.7865 106.5,13C 107.517,14.0495 107.684,15.2161 107,16.5C 104.267,19.0625 101.767,21.7291 99.5,24.5 Z"/></g>
<g><path style="opacity:1" fill="#3dc42d" d="M 132.5,13.5 C 130.982,16.2008 128.816,18.2008 126,19.5C 125.383,20.4491 125.549,21.2825 126.5,22C 129.739,22.272 132.739,21.4386 135.5,19.5C 138.145,20.1076 140.812,20.6076 143.5,21C 145.324,23.2258 147.157,24.7258 149,25.5C 151.904,23.7732 155.07,23.1065 158.5,23.5C 158.423,24.7498 157.756,25.5831 156.5,26C 156.833,26.3333 157.167,26.6667 157.5,27C 155.833,27.3333 154.167,27.6667 152.5,28C 152.833,28.3333 153.167,28.6667 153.5,29C 150.972,30.0174 150.972,31.1841 153.5,32.5C 151.577,33.3078 149.577,33.8078 147.5,34C 146.91,35.5095 146.244,37.0095 145.5,38.5C 140.773,37.3218 140.44,35.1551 144.5,32C 143.62,30.6439 143.286,29.1439 143.5,27.5C 136.344,27.286 129.344,28.1194 122.5,30C 120.341,33.3179 119.675,33.1512 120.5,29.5C 117.929,28.2723 116.595,26.2723 116.5,23.5C 117.5,22.1667 118.5,20.8333 119.5,19.5C 122.345,17.9769 125.345,16.9769 128.5,16.5C 128.5,15.5 128.5,14.5 128.5,13.5C 129.833,13.5 131.167,13.5 132.5,13.5 Z"/></g>
<g><path style="opacity:0.18" fill="#529848" d="M 138.5,28.5 C 128.38,33.3905 120.047,40.3905 113.5,49.5C 112.391,49.5569 111.391,49.8902 110.5,50.5C 111.744,47.7499 113.577,45.4166 116,43.5C 116.483,42.552 116.649,41.552 116.5,40.5C 119.344,40.6574 121.011,39.324 121.5,36.5C 124.445,36.0108 126.778,34.5108 128.5,32C 131.758,30.5335 135.092,29.3668 138.5,28.5 Z"/></g>
<g><path style="opacity:0.165" fill="#64a45b" d="M 157.5,5.5 C 159.792,5.24358 161.959,5.57692 164,6.5C 166.433,25.9454 160.266,41.9454 145.5,54.5C 145.433,53.0413 145.766,51.7079 146.5,50.5C 149.5,49.5 151.5,47.5 152.5,44.5C 160.579,33.7155 163.912,21.7155 162.5,8.5C 161.087,7.06521 159.42,6.06521 157.5,5.5 Z"/></g>
<g><path style="opacity:1" fill="#122a3b" d="M 99.5,24.5 C 99.5,25.1667 99.1667,25.5 98.5,25.5C 87.6651,28.9725 76.6651,31.8059 65.5,34C 64.2567,35.1545 63.2567,36.4878 62.5,38C 57.6281,40.6061 53.2947,43.9394 49.5,48C 50.8333,48.6667 50.8333,49.3333 49.5,50C 47.324,50.1629 45.4907,50.9963 44,52.5C 41.7659,55.9397 39.9326,59.6064 38.5,63.5C 37.069,63.9766 35.7357,64.6433 34.5,65.5C 34.7093,66.086 35.0426,66.586 35.5,67C 33.7898,68.6508 32.4564,70.4842 31.5,72.5C 29.6617,74.6613 29.3284,76.9946 30.5,79.5C 28.4354,81.3023 26.6021,83.3023 25,85.5C 22.6807,84.5915 22.0141,82.9248 23,80.5C 23.3333,81.1667 23.6667,81.8333 24,82.5C 24.2362,80.236 24.7362,78.0693 25.5,76C 25.0426,75.586 24.7093,75.086 24.5,74.5C 26.7523,71.1761 28.2523,67.5094 29,63.5C 31.8192,61.6076 33.6526,58.9409 34.5,55.5C 38.2628,52.4048 40.9295,48.0715 42.5,42.5C 44.2941,40.2034 46.2941,38.0367 48.5,36C 65.014,22.2729 84.014,15.2729 105.5,15C 102.854,17.8016 100.854,20.9683 99.5,24.5 Z"/></g>
<g><path style="opacity:1" fill="#37b832" d="M 162.5,8.5 C 163.912,21.7155 160.579,33.7155 152.5,44.5C 149.34,44.6623 146.84,45.9957 145,48.5C 144.221,47.2718 143.221,46.2718 142,45.5C 140.287,46.1374 140.121,47.1374 141.5,48.5C 141.192,49.3081 140.692,49.9747 140,50.5C 136.911,49.9492 134.078,48.7826 131.5,47C 133.993,43.0138 136.659,39.1804 139.5,35.5C 142.665,33.2658 142.998,30.9325 140.5,28.5C 139.833,28.5 139.167,28.5 138.5,28.5C 135.092,29.3668 131.758,30.5335 128.5,32C 126.778,34.5108 124.445,36.0108 121.5,36.5C 119.194,36.9926 116.861,37.3259 114.5,37.5C 114.5,38.8333 114.5,40.1667 114.5,41.5C 113.07,41.5792 111.736,41.2458 110.5,40.5C 109.476,41.8532 108.143,42.5198 106.5,42.5C 108.199,38.3979 109.366,34.0645 110,29.5C 111.011,28.6634 112.178,28.33 113.5,28.5C 113.273,26.0672 114.273,24.4006 116.5,23.5C 116.595,26.2723 117.929,28.2723 120.5,29.5C 119.675,33.1512 120.341,33.3179 122.5,30C 129.344,28.1194 136.344,27.286 143.5,27.5C 143.286,29.1439 143.62,30.6439 144.5,32C 140.44,35.1551 140.773,37.3218 145.5,38.5C 146.244,37.0095 146.91,35.5095 147.5,34C 149.577,33.8078 151.577,33.3078 153.5,32.5C 150.972,31.1841 150.972,30.0174 153.5,29C 153.167,28.6667 152.833,28.3333 152.5,28C 154.167,27.6667 155.833,27.3333 157.5,27C 157.167,26.6667 156.833,26.3333 156.5,26C 157.756,25.5831 158.423,24.7498 158.5,23.5C 159.75,23.4226 160.583,22.756 161,21.5C 161.583,17.1679 162.083,12.8346 162.5,8.5 Z"/></g>
<g><path style="opacity:1" fill="#34a835" d="M 119.5,19.5 C 118.5,20.8333 117.5,22.1667 116.5,23.5C 114.273,24.4006 113.273,26.0672 113.5,28.5C 112.178,28.33 111.011,28.6634 110,29.5C 109.366,34.0645 108.199,38.3979 106.5,42.5C 108.143,42.5198 109.476,41.8532 110.5,40.5C 111.736,41.2458 113.07,41.5792 114.5,41.5C 114.5,40.1667 114.5,38.8333 114.5,37.5C 116.861,37.3259 119.194,36.9926 121.5,36.5C 121.011,39.324 119.344,40.6574 116.5,40.5C 116.649,41.552 116.483,42.552 116,43.5C 113.577,45.4166 111.744,47.7499 110.5,50.5C 108.832,52.34 107.332,54.34 106,56.5C 105.283,55.9558 104.783,55.2891 104.5,54.5C 103.48,45.8756 104.814,37.709 108.5,30C 108.43,29.2352 108.097,28.7352 107.5,28.5C 107.833,27.5 108.5,26.8333 109.5,26.5C 109.435,26.9382 109.601,27.2716 110,27.5C 112.766,24.2232 115.933,21.5566 119.5,19.5 Z"/></g>
<g><path style="opacity:0.325" fill="#3b414b" d="M 94.5,53.5 C 92.066,50.5624 89.3993,47.7291 86.5,45C 76.8227,37.3391 71.3227,39.5058 70,51.5C 70.7172,52.0442 71.2172,52.7109 71.5,53.5C 67.1991,52.0949 66.3657,49.4282 69,45.5C 73.1312,37.7583 78.6312,36.5916 85.5,42C 89.5025,45.1551 92.5025,48.9885 94.5,53.5 Z"/></g>
<g><path style="opacity:0.251" fill="#52924d" d="M 140.5,28.5 C 142.998,30.9325 142.665,33.2658 139.5,35.5C 133.773,40.2244 128.773,45.5578 124.5,51.5C 122.5,53.5 120.5,55.5 118.5,57.5C 119.723,54.7261 121.223,52.0594 123,49.5C 128.333,44.1667 133.667,38.8333 139,33.5C 140.009,31.9751 140.509,30.3084 140.5,28.5 Z"/></g>
<g><path style="opacity:0.569" fill="#468840" d="M 107.5,28.5 C 108.097,28.7352 108.43,29.2352 108.5,30C 104.814,37.709 103.48,45.8756 104.5,54.5C 103.514,50.03 103.181,45.3633 103.5,40.5C 103.837,36.1549 105.171,32.1549 107.5,28.5 Z"/></g>
<g><path style="opacity:1" fill="#28a931" d="M 139.5,35.5 C 136.659,39.1804 133.993,43.0138 131.5,47C 134.078,48.7826 136.911,49.9492 140,50.5C 140.692,49.9747 141.192,49.3081 141.5,48.5C 140.121,47.1374 140.287,46.1374 142,45.5C 143.221,46.2718 144.221,47.2718 145,48.5C 146.84,45.9957 149.34,44.6623 152.5,44.5C 151.5,47.5 149.5,49.5 146.5,50.5C 141.844,51.7042 137.177,51.7042 132.5,50.5C 132.343,51.8734 132.51,53.2068 133,54.5C 134.545,53.1787 135.711,53.5121 136.5,55.5C 134.172,56.724 131.839,56.724 129.5,55.5C 123.32,58.9766 121.653,57.6432 124.5,51.5C 128.773,45.5578 133.773,40.2244 139.5,35.5 Z"/></g>
<g><path style="opacity:1" fill="#233042" d="M 98.5,25.5 C 98.3893,26.1174 98.056,26.6174 97.5,27C 92.1667,28.6667 86.8333,30.3333 81.5,32C 76.2774,32.0197 71.2774,33.0197 66.5,35C 63.9536,38.59 61.7869,42.4234 60,46.5C 44.3184,58.5155 34.1518,74.1822 29.5,93.5C 28.8761,93.0831 28.5427,92.4164 28.5,91.5C 29.0639,89.1807 29.5639,86.8474 30,84.5C 31.7981,80.578 33.2981,76.578 34.5,72.5C 33.5,72.5 32.5,72.5 31.5,72.5C 32.4564,70.4842 33.7898,68.6508 35.5,67C 35.0426,66.586 34.7093,66.086 34.5,65.5C 35.7357,64.6433 37.069,63.9766 38.5,63.5C 39.9326,59.6064 41.7659,55.9397 44,52.5C 45.4907,50.9963 47.324,50.1629 49.5,50C 50.8333,49.3333 50.8333,48.6667 49.5,48C 53.2947,43.9394 57.6281,40.6061 62.5,38C 63.2567,36.4878 64.2567,35.1545 65.5,34C 76.6651,31.8059 87.6651,28.9725 98.5,25.5 Z"/></g>
<g><path style="opacity:1" fill="#0f1e2d" d="M 94.5,53.5 C 97.8596,57.5523 100.193,62.219 101.5,67.5C 101.132,68.91 100.299,69.91 99,70.5C 95.2144,69.0933 91.3811,67.76 87.5,66.5C 83.3313,60.6579 77.9979,56.3246 71.5,53.5C 71.2172,52.7109 70.7172,52.0442 70,51.5C 71.3227,39.5058 76.8227,37.3391 86.5,45C 89.3993,47.7291 92.066,50.5624 94.5,53.5 Z"/></g>
<g><path style="opacity:0.671" fill="#356a3c" d="M 103.5,40.5 C 103.181,45.3633 103.514,50.03 104.5,54.5C 104.783,55.2891 105.283,55.9558 106,56.5C 107.332,54.34 108.832,52.34 110.5,50.5C 111.391,49.8902 112.391,49.5569 113.5,49.5C 111.425,52.6456 109.592,55.9789 108,59.5C 106.644,60.3802 105.144,60.7135 103.5,60.5C 102.368,53.6787 102.368,47.012 103.5,40.5 Z"/></g>
<g><path style="opacity:1" fill="#239c37" d="M 146.5,50.5 C 145.766,51.7079 145.433,53.0413 145.5,54.5C 143.801,54.3398 142.134,54.5065 140.5,55C 134.803,60.1942 128.136,63.3609 120.5,64.5C 119.5,64.1667 118.5,63.8333 117.5,63.5C 118.348,61.5914 118.682,59.5914 118.5,57.5C 120.5,55.5 122.5,53.5 124.5,51.5C 121.653,57.6432 123.32,58.9766 129.5,55.5C 131.839,56.724 134.172,56.724 136.5,55.5C 135.711,53.5121 134.545,53.1787 133,54.5C 132.51,53.2068 132.343,51.8734 132.5,50.5C 137.177,51.7042 141.844,51.7042 146.5,50.5 Z"/></g>
<g><path style="opacity:1" fill="#1c3145" d="M 209.5,91.5 C 207.71,87.7233 206.21,83.7233 205,79.5C 204.51,81.5454 204.677,83.5454 205.5,85.5C 204.883,85.6107 204.383,85.944 204,86.5C 203.604,84.0398 202.437,82.0398 200.5,80.5C 203.503,79.3915 204.003,77.7249 202,75.5C 200.108,74.87 198.441,73.87 197,72.5C 195.971,69.2356 194.471,66.2356 192.5,63.5C 188.215,60.8997 185.548,57.233 184.5,52.5C 183.178,52.67 182.011,52.3366 181,51.5C 180.667,52.5 180.333,53.5 180,54.5C 177.755,52.2546 175.921,50.4213 174.5,49C 172.924,46.8174 171.258,44.6507 169.5,42.5C 170.008,40.0958 171.175,39.4291 173,40.5C 174.062,38.7922 175.229,38.1255 176.5,38.5C 175.421,36.457 173.754,35.1237 171.5,34.5C 169.769,38.0268 168.436,41.6934 167.5,45.5C 167.719,47.6931 168.385,49.6931 169.5,51.5C 167.429,50.4281 166.095,48.7615 165.5,46.5C 166.837,42.4951 168.17,38.4951 169.5,34.5C 171.074,33.3691 172.741,33.2025 174.5,34C 192.926,49.0136 204.593,68.1802 209.5,91.5 Z"/></g>
<g><path style="opacity:0.369" fill="#45844b" d="M 145.5,54.5 C 137.935,61.4435 128.935,65.4435 118.5,66.5C 116.681,66.6578 115.348,65.9911 114.5,64.5C 115.1,61.651 116.433,59.3177 118.5,57.5C 118.682,59.5914 118.348,61.5914 117.5,63.5C 118.5,63.8333 119.5,64.1667 120.5,64.5C 128.136,63.3609 134.803,60.1942 140.5,55C 142.134,54.5065 143.801,54.3398 145.5,54.5 Z"/></g>
<g><path style="opacity:0.682" fill="#5aa94f" d="M 156.5,65.5 C 156.53,66.4972 156.03,67.1639 155,67.5C 150.169,66.2662 145.336,66.2662 140.5,67.5C 145.271,62.9817 150.604,62.315 156.5,65.5 Z"/></g>
<g><path style="opacity:1" fill="#112a3d" d="M 205.5,85.5 C 206.038,87.1172 206.371,88.7839 206.5,90.5C 206.349,93.7181 205.516,94.0515 204,91.5C 203.526,96.627 202.526,96.627 201,91.5C 200.195,93.9011 199.362,93.7344 198.5,91C 198.833,90.6667 199.167,90.3333 199.5,90C 198.451,89.5078 197.451,89.6744 196.5,90.5C 195.808,89.9747 195.308,89.3081 195,88.5C 194.601,88.7284 194.435,89.0618 194.5,89.5C 190.536,77.9118 184.702,67.2452 177,57.5C 174.894,54.8823 172.394,52.8823 169.5,51.5C 168.385,49.6931 167.719,47.6931 167.5,45.5C 168.436,41.6934 169.769,38.0268 171.5,34.5C 173.754,35.1237 175.421,36.457 176.5,38.5C 175.229,38.1255 174.062,38.7922 173,40.5C 171.175,39.4291 170.008,40.0958 169.5,42.5C 171.258,44.6507 172.924,46.8174 174.5,49C 175.921,50.4213 177.755,52.2546 180,54.5C 180.333,53.5 180.667,52.5 181,51.5C 182.011,52.3366 183.178,52.67 184.5,52.5C 185.548,57.233 188.215,60.8997 192.5,63.5C 194.471,66.2356 195.971,69.2356 197,72.5C 198.441,73.87 200.108,74.87 202,75.5C 204.003,77.7249 203.503,79.3915 200.5,80.5C 202.437,82.0398 203.604,84.0398 204,86.5C 204.383,85.944 204.883,85.6107 205.5,85.5 Z"/></g>
<g><path style="opacity:0.396" fill="#549c51" d="M 117.5,77.5 C 117.167,78.1667 116.833,78.8333 116.5,79.5C 109.159,79.6663 101.826,79.4997 94.5,79C 91.9963,78.3024 89.663,77.4691 87.5,76.5C 82.0154,75.3483 76.3487,75.1816 70.5,76C 67.7886,76.7731 65.2886,77.9398 63,79.5C 61.9701,79.1639 61.4701,78.4972 61.5,77.5C 67.1255,75.3411 72.9588,74.0077 79,73.5C 85.6882,74.1736 92.1882,75.6736 98.5,78C 104.862,78.6534 111.195,78.4867 117.5,77.5 Z"/></g>
<g><path style="opacity:0.153" fill="#60a452" d="M 158.5,66.5 C 168.759,72.093 175.759,80.4263 179.5,91.5C 179.5,92.5 179.5,93.5 179.5,94.5C 178.833,93.5 178.167,92.5 177.5,91.5C 177.2,87.5673 175.367,84.5673 172,82.5C 170.8,78.3337 168.3,75.3337 164.5,73.5C 162.374,71.146 160.374,68.8127 158.5,66.5 Z"/></g>
<g><path style="opacity:0.933" fill="#4cab45" d="M 140.5,67.5 C 133.662,73.5859 125.662,77.5859 116.5,79.5C 116.833,78.8333 117.167,78.1667 117.5,77.5C 125.124,74.1769 132.791,70.8435 140.5,67.5 Z"/></g>
<g><path style="opacity:1" fill="#39c12e" d="M 156.5,65.5 C 157.167,65.8333 157.833,66.1667 158.5,66.5C 160.374,68.8127 162.374,71.146 164.5,73.5C 164.511,75.0174 165.177,76.1841 166.5,77C 165.073,79.7129 163.906,82.5462 163,85.5C 161.407,78.4506 159.74,78.1173 158,84.5C 155.824,84.5716 153.824,84.2383 152,83.5C 151.612,84.428 150.945,85.0946 150,85.5C 144.203,85.336 138.536,84.0027 133,81.5C 131.855,82.6364 130.688,83.6364 129.5,84.5C 127.784,84.6287 126.117,84.962 124.5,85.5C 123.127,85.6567 121.793,85.49 120.5,85C 119.279,82.9663 117.945,81.133 116.5,79.5C 125.662,77.5859 133.662,73.5859 140.5,67.5C 145.336,66.2662 150.169,66.2662 155,67.5C 156.03,67.1639 156.53,66.4972 156.5,65.5 Z"/></g>
<g><path style="opacity:1" fill="#34b831" d="M 87.5,76.5 C 89.663,77.4691 91.9963,78.3024 94.5,79C 101.826,79.4997 109.159,79.6663 116.5,79.5C 117.945,81.133 119.279,82.9663 120.5,85C 121.793,85.49 123.127,85.6567 124.5,85.5C 124.5,85.8333 124.5,86.1667 124.5,86.5C 122.167,87.8333 119.833,89.1667 117.5,90.5C 115.623,90.0997 114.123,89.0997 113,87.5C 109.523,90.0691 106.023,90.0691 102.5,87.5C 101.158,88.9023 100.324,88.5689 100,86.5C 99.2753,87.0585 98.4419,87.3918 97.5,87.5C 90.3118,86.3064 83.1452,85.3064 76,84.5C 74.1267,85.0891 72.46,84.4224 71,82.5C 69.692,83.1513 68.8586,82.4846 68.5,80.5C 69.1859,79.1516 70.1859,77.985 71.5,77C 76.8229,76.5006 82.1563,76.334 87.5,76.5 Z"/></g>
<g><path style="opacity:1" fill="#30b032" d="M 68.5,80.5 C 68.8586,82.4846 69.692,83.1513 71,82.5C 72.46,84.4224 74.1267,85.0891 76,84.5C 83.1452,85.3064 90.3118,86.3064 97.5,87.5C 98.4419,87.3918 99.2753,87.0585 100,86.5C 100.324,88.5689 101.158,88.9023 102.5,87.5C 106.023,90.0691 109.523,90.0691 113,87.5C 114.123,89.0997 115.623,90.0997 117.5,90.5C 117.598,92.5529 116.931,94.2196 115.5,95.5C 114.391,95.5569 113.391,95.8902 112.5,96.5C 105.948,97.605 99.6145,97.4383 93.5,96C 93.273,94.8647 92.9396,93.698 92.5,92.5C 91.1667,93.1667 89.8333,93.8333 88.5,94.5C 85.8612,92.4701 83.0279,90.8034 80,89.5C 77.4408,89.7147 74.6075,89.7147 71.5,89.5C 71.6495,88.448 71.4828,87.448 71,86.5C 67.8401,85.3518 66.0068,83.5185 65.5,81C 66.448,80.5172 67.448,80.3505 68.5,80.5 Z"/></g>
<g><path style="opacity:1" fill="#102739" d="M 42.5,42.5 C 40.9295,48.0715 38.2628,52.4048 34.5,55.5C 33.6526,58.9409 31.8192,61.6076 29,63.5C 28.2523,67.5094 26.7523,71.1761 24.5,74.5C 24.7093,75.086 25.0426,75.586 25.5,76C 24.7362,78.0693 24.2362,80.236 24,82.5C 23.6667,81.8333 23.3333,81.1667 23,80.5C 22.0141,82.9248 22.6807,84.5915 25,85.5C 26.6021,83.3023 28.4354,81.3023 30.5,79.5C 29.3284,76.9946 29.6617,74.6613 31.5,72.5C 32.5,72.5 33.5,72.5 34.5,72.5C 33.2981,76.578 31.7981,80.578 30,84.5C 29.5639,86.8474 29.0639,89.1807 28.5,91.5C 28.5427,92.4164 28.8761,93.0831 29.5,93.5C 29.1667,94.1667 28.8333,94.8333 28.5,95.5C 27.0677,99.3985 26.0677,103.399 25.5,107.5C 24.3604,112.382 23.6937,120.216 23.5,131C 24.3081,131.308 24.9747,131.808 25.5,132.5C 23.9893,134.838 24.3227,135.504 26.5,134.5C 27.1341,136.567 28.1341,138.4 29.5,140C 28.8033,142.159 29.1366,144.326 30.5,146.5C 29.6431,147.425 28.6431,148.092 27.5,148.5C 27.5,147.167 27.5,145.833 27.5,144.5C 26.1667,144.5 24.8333,144.5 23.5,144.5C 23.1459,146.541 23.1459,148.374 23.5,150C 20.1892,149.864 19.8559,148.697 22.5,146.5C 21.668,142.845 20.8346,139.179 20,135.5C 18.6667,136.167 17.6667,137.167 17,138.5C 16.9009,135.26 17.4009,132.094 18.5,129C 16.7706,115.599 15.4372,102.432 14.5,89.5C 19.0712,75.0243 25.7378,61.691 34.5,49.5C 37.0962,47.2471 39.7629,44.9137 42.5,42.5 Z"/></g>
<g><path style="opacity:1" fill="#2eaa34" d="M 87.5,76.5 C 82.1563,76.334 76.8229,76.5006 71.5,77C 70.1859,77.985 69.1859,79.1516 68.5,80.5C 67.448,80.3505 66.448,80.5172 65.5,81C 66.0068,83.5185 67.8401,85.3518 71,86.5C 71.4828,87.448 71.6495,88.448 71.5,89.5C 74.6075,89.7147 77.4408,89.7147 80,89.5C 83.0279,90.8034 85.8612,92.4701 88.5,94.5C 89.8333,93.8333 91.1667,93.1667 92.5,92.5C 92.9396,93.698 93.273,94.8647 93.5,96C 99.6145,97.4383 105.948,97.605 112.5,96.5C 112.5,98.8333 112.5,101.167 112.5,103.5C 108.417,102.128 104.417,102.461 100.5,104.5C 97.3664,101.803 94.5331,102.136 92,105.5C 89.3321,104.02 89.1655,102.52 91.5,101C 87.9308,100.61 84.5975,99.6101 81.5,98C 82.8333,97.6667 84.1667,97.3333 85.5,97C 81.0694,95.0709 76.0694,93.9042 70.5,93.5C 68.0884,93.4062 66.255,94.4062 65,96.5C 63.0955,95.842 61.5955,94.6753 60.5,93C 63.0352,92.0718 64.0352,90.2385 63.5,87.5C 59.5465,89.0837 56.3798,91.7504 54,95.5C 52.3721,94.0383 52.2054,92.3717 53.5,90.5C 53.5,89.8333 53.5,89.1667 53.5,88.5C 55.3674,86.0914 57.5341,83.7581 60,81.5C 60.4828,80.552 60.6495,79.552 60.5,78.5C 60.5,77.8333 60.8333,77.5 61.5,77.5C 61.4701,78.4972 61.9701,79.1639 63,79.5C 65.2886,77.9398 67.7886,76.7731 70.5,76C 76.3487,75.1816 82.0154,75.3483 87.5,76.5 Z"/></g>
<g><path style="opacity:0.631" fill="#478a43" d="M 143.5,94.5 C 145.442,98.5755 145.942,102.909 145,107.5C 142.54,108.958 140.373,110.791 138.5,113C 136.975,114.009 135.308,114.509 133.5,114.5C 145.023,108.01 146.356,99.8432 137.5,90C 129.935,86.5153 123.435,88.0153 118,94.5C 115.788,100.457 116.288,106.124 119.5,111.5C 119.631,112.239 119.464,112.906 119,113.5C 114.466,108.27 113.3,102.27 115.5,95.5C 116.931,94.2196 117.598,92.5529 117.5,90.5C 119.833,89.1667 122.167,87.8333 124.5,86.5C 128.852,85.2651 133.186,85.4317 137.5,87C 139.364,89.6877 141.364,92.1877 143.5,94.5 Z"/></g>
<g><path style="opacity:1" fill="#40bc33" d="M 164.5,73.5 C 168.3,75.3337 170.8,78.3337 172,82.5C 175.367,84.5673 177.2,87.5673 177.5,91.5C 177.46,94.8806 177.793,98.2139 178.5,101.5C 177.636,100.312 176.636,99.1451 175.5,98C 176.711,97.1072 176.711,96.2739 175.5,95.5C 174.672,96.4147 173.672,97.0814 172.5,97.5C 169.697,95.6911 166.697,94.3578 163.5,93.5C 163.649,92.448 163.483,91.448 163,90.5C 161.442,91.3452 160.442,90.6785 160,88.5C 159.692,89.3081 159.192,89.9747 158.5,90.5C 157.387,88.9686 155.887,87.9686 154,87.5C 152.072,87.9335 150.239,88.6002 148.5,89.5C 147.353,89.1822 146.519,88.5156 146,87.5C 144.688,89.6576 143.022,89.9909 141,88.5C 140.517,87.552 140.351,86.552 140.5,85.5C 136.846,85.0578 133.179,84.7244 129.5,84.5C 130.688,83.6364 131.855,82.6364 133,81.5C 138.536,84.0027 144.203,85.336 150,85.5C 150.945,85.0946 151.612,84.428 152,83.5C 153.824,84.2383 155.824,84.5716 158,84.5C 159.74,78.1173 161.407,78.4506 163,85.5C 163.906,82.5462 165.073,79.7129 166.5,77C 165.177,76.1841 164.511,75.0174 164.5,73.5 Z"/></g>
<g><path style="opacity:0.824" fill="#49954d" d="M 60.5,78.5 C 60.6495,79.552 60.4828,80.552 60,81.5C 57.5341,83.7581 55.3674,86.0914 53.5,88.5C 51.2632,90.6471 49.2632,92.9804 47.5,95.5C 47.1667,95.5 46.8333,95.5 46.5,95.5C 46.1667,95.5 45.8333,95.5 45.5,95.5C 48.4248,87.9712 53.4248,82.3045 60.5,78.5 Z"/></g>
<g><path style="opacity:1" fill="#28a435" d="M 112.5,103.5 C 112.38,106.48 111.713,109.313 110.5,112C 102.969,112.481 95.4691,113.981 88,116.5C 87.1667,116.333 86.3333,116.167 85.5,116C 86.8333,115.333 86.8333,114.667 85.5,114C 87.1124,113.28 88.6124,113.446 90,114.5C 94.5621,112.752 94.3954,111.252 89.5,110C 90.1667,109.333 90.8333,108.667 91.5,108C 89.0197,107.04 86.5197,106.207 84,105.5C 82.9826,108.028 81.8159,108.028 80.5,105.5C 78.9291,106.309 77.2624,106.643 75.5,106.5C 75.5,105.5 75.5,104.5 75.5,103.5C 73.8561,103.286 72.3561,103.62 71,104.5C 70.6458,102.193 69.6458,101.859 68,103.5C 63.4923,102.538 59.159,101.204 55,99.5C 53.6998,100.707 52.1998,101.374 50.5,101.5C 50.3359,98.8127 50.5026,96.146 51,93.5C 51.3768,92.0577 52.2101,91.0577 53.5,90.5C 52.2054,92.3717 52.3721,94.0383 54,95.5C 56.3798,91.7504 59.5465,89.0837 63.5,87.5C 64.0352,90.2385 63.0352,92.0718 60.5,93C 61.5955,94.6753 63.0955,95.842 65,96.5C 66.255,94.4062 68.0884,93.4062 70.5,93.5C 76.0694,93.9042 81.0694,95.0709 85.5,97C 84.1667,97.3333 82.8333,97.6667 81.5,98C 84.5975,99.6101 87.9308,100.61 91.5,101C 89.1655,102.52 89.3321,104.02 92,105.5C 94.5331,102.136 97.3664,101.803 100.5,104.5C 104.417,102.461 108.417,102.128 112.5,103.5 Z"/></g>
<g><path style="opacity:1" fill="#0e273a" d="M 206.5,90.5 C 207.94,94.4064 208.606,98.5731 208.5,103C 208.165,110.531 207.498,118.031 206.5,125.5C 205.885,122.564 204.718,119.897 203,117.5C 201.786,119.049 200.286,120.215 198.5,121C 198.833,122 199.167,123 199.5,124C 198.139,125.584 197.472,127.418 197.5,129.5C 196.5,129.5 195.5,129.5 194.5,129.5C 198.457,115.857 198.457,102.523 194.5,89.5C 194.435,89.0618 194.601,88.7284 195,88.5C 195.308,89.3081 195.808,89.9747 196.5,90.5C 197.451,89.6744 198.451,89.5078 199.5,90C 199.167,90.3333 198.833,90.6667 198.5,91C 199.362,93.7344 200.195,93.9011 201,91.5C 202.526,96.627 203.526,96.627 204,91.5C 205.516,94.0515 206.349,93.7181 206.5,90.5 Z"/></g>
<g><path style="opacity:1" fill="#30b02e" d="M 129.5,84.5 C 133.179,84.7244 136.846,85.0578 140.5,85.5C 140.351,86.552 140.517,87.552 141,88.5C 143.022,89.9909 144.688,89.6576 146,87.5C 146.519,88.5156 147.353,89.1822 148.5,89.5C 150.239,88.6002 152.072,87.9335 154,87.5C 155.887,87.9686 157.387,88.9686 158.5,90.5C 159.192,89.9747 159.692,89.3081 160,88.5C 160.442,90.6785 161.442,91.3452 163,90.5C 163.483,91.448 163.649,92.448 163.5,93.5C 166.697,94.3578 169.697,95.6911 172.5,97.5C 173.672,97.0814 174.672,96.4147 175.5,95.5C 176.711,96.2739 176.711,97.1072 175.5,98C 176.636,99.1451 177.636,100.312 178.5,101.5C 180.064,107.075 180.564,112.742 180,118.5C 179.586,118.957 179.086,119.291 178.5,119.5C 177.051,118.383 175.384,117.716 173.5,117.5C 170.802,117.571 168.802,118.237 167.5,119.5C 167.806,116.615 167.473,113.948 166.5,111.5C 165.855,109.174 164.522,107.507 162.5,106.5C 158.998,105.694 155.331,105.027 151.5,104.5C 148.453,106.157 147.12,105.157 147.5,101.5C 147.851,98.1884 146.518,95.855 143.5,94.5C 141.364,92.1877 139.364,89.6877 137.5,87C 133.186,85.4317 128.852,85.2651 124.5,86.5C 124.5,86.1667 124.5,85.8333 124.5,85.5C 126.117,84.962 127.784,84.6287 129.5,84.5 Z"/></g>
<g><path style="opacity:0.408" fill="#528c52" d="M 179.5,91.5 C 181.109,94.906 182.276,98.5727 183,102.5C 183.5,109.158 183.666,115.825 183.5,122.5C 182.833,117.5 182.167,112.5 181.5,107.5C 180.535,103.227 179.869,98.8941 179.5,94.5C 179.5,93.5 179.5,92.5 179.5,91.5 Z"/></g>
<g><path style="opacity:1" fill="#239938" d="M 46.5,95.5 C 46.8333,95.5 47.1667,95.5 47.5,95.5C 46.5356,99.7935 47.8689,102.96 51.5,105C 53.5767,105.192 55.5767,105.692 57.5,106.5C 60.934,108.392 64.2673,110.559 67.5,113C 72.2199,114.071 76.8866,114.405 81.5,114C 82.9733,114.71 83.6399,115.876 83.5,117.5C 84.8333,117.5 86.1667,117.5 87.5,117.5C 85.2889,118.111 83.6223,119.444 82.5,121.5C 80.9382,121.733 79.6049,122.4 78.5,123.5C 75.5794,123.146 73.2461,124.146 71.5,126.5C 70.7696,124.659 70.1029,122.825 69.5,121C 70.5,120.667 71.5,120.333 72.5,120C 72.6399,118.931 72.6399,117.764 72.5,116.5C 66.2347,119.696 60.7347,118.696 56,113.5C 54.3908,114.15 52.8908,113.65 51.5,112C 50.2068,111.51 48.8734,111.343 47.5,111.5C 47.7733,109.549 47.1066,108.049 45.5,107C 46.2668,103.535 46.6002,99.7018 46.5,95.5 Z"/></g>
<g><path style="opacity:1" fill="#259b33" d="M 53.5,88.5 C 53.5,89.1667 53.5,89.8333 53.5,90.5C 52.2101,91.0577 51.3768,92.0577 51,93.5C 50.5026,96.146 50.3359,98.8127 50.5,101.5C 52.1998,101.374 53.6998,100.707 55,99.5C 59.159,101.204 63.4923,102.538 68,103.5C 69.6458,101.859 70.6458,102.193 71,104.5C 72.3561,103.62 73.8561,103.286 75.5,103.5C 75.5,104.5 75.5,105.5 75.5,106.5C 77.2624,106.643 78.9291,106.309 80.5,105.5C 81.8159,108.028 82.9826,108.028 84,105.5C 86.5197,106.207 89.0197,107.04 91.5,108C 90.8333,108.667 90.1667,109.333 89.5,110C 94.3954,111.252 94.5621,112.752 90,114.5C 88.6124,113.446 87.1124,113.28 85.5,114C 86.8333,114.667 86.8333,115.333 85.5,116C 86.3333,116.167 87.1667,116.333 88,116.5C 95.4691,113.981 102.969,112.481 110.5,112C 111.713,109.313 112.38,106.48 112.5,103.5C 112.5,101.167 112.5,98.8333 112.5,96.5C 113.391,95.8902 114.391,95.5569 115.5,95.5C 113.3,102.27 114.466,108.27 119,113.5C 119.464,112.906 119.631,112.239 119.5,111.5C 123.73,114.725 128.397,115.725 133.5,114.5C 135.308,114.509 136.975,114.009 138.5,113C 140.373,110.791 142.54,108.958 145,107.5C 145.942,102.909 145.442,98.5755 143.5,94.5C 146.518,95.855 147.851,98.1884 147.5,101.5C 147.05,105.918 145.384,109.918 142.5,113.5C 135.547,116.749 128.214,118.249 120.5,118C 121.381,118.708 122.047,119.542 122.5,120.5C 118.234,119.338 113.9,118.171 109.5,117C 102.148,116.418 94.8149,116.585 87.5,117.5C 86.1667,117.5 84.8333,117.5 83.5,117.5C 83.6399,115.876 82.9733,114.71 81.5,114C 76.8866,114.405 72.2199,114.071 67.5,113C 64.2673,110.559 60.934,108.392 57.5,106.5C 55.5767,105.692 53.5767,105.192 51.5,105C 47.8689,102.96 46.5356,99.7935 47.5,95.5C 49.2632,92.9804 51.2632,90.6471 53.5,88.5 Z"/></g>
<g><path style="opacity:0.063" fill="#3b4856" d="M 28.5,95.5 C 27.1954,106.83 27.1954,118.164 28.5,129.5C 26.5882,122.434 25.5882,115.1 25.5,107.5C 26.0677,103.399 27.0677,99.3985 28.5,95.5 Z"/></g>
<g><path style="opacity:0.404" fill="#4e8252" d="M 158.5,107.5 C 160.903,107.393 162.736,108.393 164,110.5C 164.762,114.587 164.596,118.587 163.5,122.5C 162.347,124.636 161.014,126.636 159.5,128.5C 162.108,122.757 162.941,116.757 162,110.5C 160.506,109.253 159.006,109.253 157.5,110.5C 156.028,118.282 152.361,124.782 146.5,130C 144.26,130.977 141.927,131.477 139.5,131.5C 149.151,127.608 154.485,120.275 155.5,109.5C 155.973,108.094 156.973,107.427 158.5,107.5 Z"/></g>
<g><path style="opacity:1" fill="#1c8d36" d="M 45.5,95.5 C 45.8333,95.5 46.1667,95.5 46.5,95.5C 46.6002,99.7018 46.2668,103.535 45.5,107C 47.1066,108.049 47.7733,109.549 47.5,111.5C 48.8734,111.343 50.2068,111.51 51.5,112C 52.8908,113.65 54.3908,114.15 56,113.5C 60.7347,118.696 66.2347,119.696 72.5,116.5C 72.6399,117.764 72.6399,118.931 72.5,120C 71.5,120.333 70.5,120.667 69.5,121C 70.1029,122.825 70.7696,124.659 71.5,126.5C 73.2461,124.146 75.5794,123.146 78.5,123.5C 76.1442,126.186 73.8109,128.853 71.5,131.5C 69.8958,132.287 69.2291,133.62 69.5,135.5C 62.9459,135.458 55.9459,134.625 48.5,133C 44.1077,128.044 42.441,122.211 43.5,115.5C 43.3705,110.02 44.0372,104.686 45.5,99.5C 45.5,98.1667 45.5,96.8333 45.5,95.5 Z"/></g>
<g><path style="opacity:1" fill="#149b29" d="M 147.5,101.5 C 147.12,105.157 148.453,106.157 151.5,104.5C 155.331,105.027 158.998,105.694 162.5,106.5C 160.901,106.232 159.568,106.566 158.5,107.5C 156.973,107.427 155.973,108.094 155.5,109.5C 153.732,112.606 152.232,115.939 151,119.5C 148.069,121.762 145.903,124.595 144.5,128C 142.167,128.667 139.833,128.667 137.5,128C 132.129,125.981 127.129,123.481 122.5,120.5C 122.047,119.542 121.381,118.708 120.5,118C 128.214,118.249 135.547,116.749 142.5,113.5C 145.384,109.918 147.05,105.918 147.5,101.5 Z"/></g>
<g><path style="opacity:1" fill="#112437" d="M 209.5,91.5 C 215.137,126.923 205.137,157.256 179.5,182.5C 178.325,182.719 177.325,182.386 176.5,181.5C 178.361,180.472 179.695,178.972 180.5,177C 179.833,176.667 179.167,176.333 178.5,176C 179.833,174.333 179.833,172.667 178.5,171C 179.565,169.371 180.899,168.204 182.5,167.5C 183.736,168.246 185.07,168.579 186.5,168.5C 187.593,163.902 190.093,160.235 194,157.5C 194.889,151.937 196.389,146.603 198.5,141.5C 197.452,139.59 197.452,137.756 198.5,136C 197.324,133.699 195.99,133.366 194.5,135C 195.747,136.458 195.747,137.958 194.5,139.5C 196.461,140.848 196.628,142.181 195,143.5C 194.667,143.167 194.333,142.833 194,142.5C 192.248,147.81 189.081,151.976 184.5,155C 185.167,155.333 185.833,155.667 186.5,156C 185.663,157.011 185.33,158.178 185.5,159.5C 184.022,159.238 182.689,159.571 181.5,160.5C 180.236,163.125 179.069,165.792 178,168.5C 176.053,169.11 174.219,169.943 172.5,171C 172.5,172.333 172.5,173.667 172.5,175C 167.09,175.076 163.257,177.576 161,182.5C 160.667,182.167 160.333,181.833 160,181.5C 158.902,182.967 157.402,183.801 155.5,184C 154.667,186.167 153.167,187.667 151,188.5C 150.278,190.661 150.945,192.328 153,193.5C 154.73,193.491 156.563,193.158 158.5,192.5C 155.437,188.104 156.771,187.437 162.5,190.5C 165.359,189.821 167.859,188.488 170,186.5C 170.5,186.667 171,186.833 171.5,187C 170.29,188.039 169.29,189.206 168.5,190.5C 155.626,200.577 140.959,206.577 124.5,208.5C 135.449,205.792 146.116,201.959 156.5,197C 157.696,196.346 157.696,195.846 156.5,195.5C 152.396,197.757 148.062,199.424 143.5,200.5C 145.395,198.557 147.728,197.057 150.5,196C 148.269,195.378 146.435,194.211 145,192.5C 144.667,192.833 144.333,193.167 144,193.5C 142.246,191.75 140.079,191.083 137.5,191.5C 137.833,190.833 138.167,190.167 138.5,189.5C 148.764,185.368 158.097,179.701 166.5,172.5C 168.861,171.565 171.028,170.232 173,168.5C 183.284,157.269 190.451,144.269 194.5,129.5C 195.5,129.5 196.5,129.5 197.5,129.5C 197.472,127.418 198.139,125.584 199.5,124C 199.167,123 198.833,122 198.5,121C 200.286,120.215 201.786,119.049 203,117.5C 204.718,119.897 205.885,122.564 206.5,125.5C 207.498,118.031 208.165,110.531 208.5,103C 208.606,98.5731 207.94,94.4064 206.5,90.5C 206.371,88.7839 206.038,87.1172 205.5,85.5C 204.677,83.5454 204.51,81.5454 205,79.5C 206.21,83.7233 207.71,87.7233 209.5,91.5 Z"/></g>
<g><path style="opacity:1" fill="#25a131" d="M 177.5,91.5 C 178.167,92.5 178.833,93.5 179.5,94.5C 179.869,98.8941 180.535,103.227 181.5,107.5C 182.044,116.393 180.211,124.726 176,132.5C 174.794,129.052 173.294,125.719 171.5,122.5C 170.01,124.126 168.51,125.792 167,127.5C 166.667,127.167 166.333,126.833 166,126.5C 166.161,121.533 166.328,116.533 166.5,111.5C 167.473,113.948 167.806,116.615 167.5,119.5C 168.802,118.237 170.802,117.571 173.5,117.5C 175.384,117.716 177.051,118.383 178.5,119.5C 179.086,119.291 179.586,118.957 180,118.5C 180.564,112.742 180.064,107.075 178.5,101.5C 177.793,98.2139 177.46,94.8806 177.5,91.5 Z"/></g>
<g><path style="opacity:0.843" fill="#257131" d="M 155.5,109.5 C 154.485,120.275 149.151,127.608 139.5,131.5C 130.316,127.412 120.983,123.578 111.5,120C 105.545,118.928 99.5453,118.428 93.5,118.5C 89.5876,118.624 85.9209,119.624 82.5,121.5C 83.6223,119.444 85.2889,118.111 87.5,117.5C 94.8149,116.585 102.148,116.418 109.5,117C 113.9,118.171 118.234,119.338 122.5,120.5C 127.129,123.481 132.129,125.981 137.5,128C 139.833,128.667 142.167,128.667 144.5,128C 145.903,124.595 148.069,121.762 151,119.5C 152.232,115.939 153.732,112.606 155.5,109.5 Z"/></g>
<g><path style="opacity:1" fill="#137e34" d="M 45.5,99.5 C 44.0372,104.686 43.3705,110.02 43.5,115.5C 42.441,122.211 44.1077,128.044 48.5,133C 55.9459,134.625 62.9459,135.458 69.5,135.5C 66.9747,138.568 65.308,142.068 64.5,146C 63.8333,146.667 63.1667,146.667 62.5,146C 61.2091,141.932 59.0424,141.432 56,144.5C 55.6264,146.491 54.793,148.158 53.5,149.5C 50.1603,143.784 46.827,138.118 43.5,132.5C 42.7784,132.082 42.2784,131.416 42,130.5C 41.3333,123.167 41.3333,115.833 42,108.5C 42.1191,104.995 43.2857,101.995 45.5,99.5 Z"/></g>
<g><path style="opacity:0.169" fill="#376e49" d="M 159.5,128.5 C 159.509,130.308 159.009,131.975 158,133.5C 155.46,135.705 153.293,138.205 151.5,141C 142.397,143.658 133.73,142.658 125.5,138C 124.167,137.333 122.833,137.333 121.5,138C 120.055,141.243 118.389,144.41 116.5,147.5C 117.432,149.765 118.765,151.765 120.5,153.5C 117.377,153.442 115.044,152.108 113.5,149.5C 115.018,144.295 117.684,139.795 121.5,136C 127.167,137.314 132.834,138.981 138.5,141C 143.181,141.665 147.514,140.665 151.5,138C 154.78,135.225 157.446,132.058 159.5,128.5 Z"/></g>
<g><path style="opacity:0.365" fill="#38704d" d="M 93.5,118.5 C 78.6354,122.524 71.1354,132.19 71,147.5C 73.0483,149.787 75.2149,149.954 77.5,148C 78.7332,145.686 80.0666,143.519 81.5,141.5C 81.1667,143.5 80.8333,145.5 80.5,147.5C 77.7031,150.474 74.3698,151.141 70.5,149.5C 69.1491,147.546 68.4825,145.379 68.5,143C 69.6542,139.196 70.6542,135.363 71.5,131.5C 73.8109,128.853 76.1442,126.186 78.5,123.5C 79.6049,122.4 80.9382,121.733 82.5,121.5C 85.9209,119.624 89.5876,118.624 93.5,118.5 Z"/></g>
<g><path style="opacity:1" fill="#087b2b" d="M 163.5,122.5 C 163.579,125.271 163.079,127.937 162,130.5C 158.943,134.049 156.109,137.716 153.5,141.5C 156.524,146.065 159.191,150.398 161.5,154.5C 162.251,153.624 162.751,152.624 163,151.5C 164.699,152.406 166.533,152.739 168.5,152.5C 168.351,151.448 168.517,150.448 169,149.5C 170.976,148.178 172.476,146.512 173.5,144.5C 171.774,150.897 168.107,155.897 162.5,159.5C 159.455,159.704 156.621,159.704 154,159.5C 152.418,162.341 150.251,163.341 147.5,162.5C 147.277,163.967 146.944,165.467 146.5,167C 148.577,167.192 150.577,167.692 152.5,168.5C 152.023,169.478 151.357,170.311 150.5,171C 148.167,171.333 145.833,171.667 143.5,172C 144.609,173.813 143.942,174.646 141.5,174.5C 142.614,169.428 140.947,165.761 136.5,163.5C 133.143,157.148 127.81,153.815 120.5,153.5C 118.765,151.765 117.432,149.765 116.5,147.5C 118.389,144.41 120.055,141.243 121.5,138C 122.833,137.333 124.167,137.333 125.5,138C 133.73,142.658 142.397,143.658 151.5,141C 153.293,138.205 155.46,135.705 158,133.5C 159.009,131.975 159.509,130.308 159.5,128.5C 161.014,126.636 162.347,124.636 163.5,122.5 Z"/></g>
<g><path style="opacity:0.078" fill="#3a4451" d="M 29.5,133.5 C 34.613,147.728 42.2796,160.395 52.5,171.5C 49.9438,170.457 47.7772,168.79 46,166.5C 37.9142,156.711 32.4142,145.711 29.5,133.5 Z"/></g>
<g><path style="opacity:1" fill="#0f2235" d="M 25.5,107.5 C 25.5882,115.1 26.5882,122.434 28.5,129.5C 29.4345,130.568 29.7678,131.901 29.5,133.5C 32.4142,145.711 37.9142,156.711 46,166.5C 47.7772,168.79 49.9438,170.457 52.5,171.5C 57.4131,174.118 61.7465,177.452 65.5,181.5C 67.195,183.213 68.0283,185.213 68,187.5C 66.2703,187.491 64.437,187.158 62.5,186.5C 58.1915,183.228 53.6915,180.228 49,177.5C 49.0187,175.893 49.1854,174.226 49.5,172.5C 47.5,172.833 45.5,173.167 43.5,173.5C 43.3573,175.262 43.6906,176.929 44.5,178.5C 46.8796,181.008 49.5463,183.008 52.5,184.5C 51.7784,184.918 51.2784,185.584 51,186.5C 49.5648,184.789 47.7314,183.622 45.5,183C 43.2622,181.092 41.9289,179.092 41.5,177C 40.3353,175.008 39.002,173.175 37.5,171.5C 38.4985,171.413 39.6651,171.08 41,170.5C 41.2078,168.141 41.3744,165.974 41.5,164C 39.567,163.749 37.7337,163.249 36,162.5C 35.8305,159.532 35.6638,156.699 35.5,154C 33.2779,153.305 31.1113,152.472 29,151.5C 28.0497,152.022 27.2164,152.689 26.5,153.5C 26.1667,153.167 25.8333,152.833 25.5,152.5C 26.6302,151.378 27.2969,150.044 27.5,148.5C 28.6431,148.092 29.6431,147.425 30.5,146.5C 29.1366,144.326 28.8033,142.159 29.5,140C 28.1341,138.4 27.1341,136.567 26.5,134.5C 24.3227,135.504 23.9893,134.838 25.5,132.5C 24.9747,131.808 24.3081,131.308 23.5,131C 23.6937,120.216 24.3604,112.382 25.5,107.5 Z"/></g>
<g><path style="opacity:0.376" fill="#2b3948" d="M 34.5,49.5 C 25.7378,61.691 19.0712,75.0243 14.5,89.5C 9.0877,116.026 13.0877,141.026 26.5,164.5C 20.5054,156.84 16.3388,148.174 14,138.5C 5.63576,105.128 12.4691,75.4611 34.5,49.5 Z"/></g>
<g><path style="opacity:1" fill="#178b31" d="M 158.5,107.5 C 159.568,106.566 160.901,106.232 162.5,106.5C 164.522,107.507 165.855,109.174 166.5,111.5C 166.328,116.533 166.161,121.533 166,126.5C 166.333,126.833 166.667,127.167 167,127.5C 168.51,125.792 170.01,124.126 171.5,122.5C 173.294,125.719 174.794,129.052 176,132.5C 180.211,124.726 182.044,116.393 181.5,107.5C 182.167,112.5 182.833,117.5 183.5,122.5C 183.167,123.167 182.833,123.833 182.5,124.5C 181.883,124.389 181.383,124.056 181,123.5C 179.537,131.048 177.037,138.048 173.5,144.5C 172.476,146.512 170.976,148.178 169,149.5C 168.517,150.448 168.351,151.448 168.5,152.5C 166.533,152.739 164.699,152.406 163,151.5C 162.751,152.624 162.251,153.624 161.5,154.5C 159.191,150.398 156.524,146.065 153.5,141.5C 156.109,137.716 158.943,134.049 162,130.5C 163.079,127.937 163.579,125.271 163.5,122.5C 164.596,118.587 164.762,114.587 164,110.5C 162.736,108.393 160.903,107.393 158.5,107.5 Z"/></g>
<g><path style="opacity:1" fill="#0b7136" d="M 71.5,131.5 C 70.6542,135.363 69.6542,139.196 68.5,143C 68.4825,145.379 69.1491,147.546 70.5,149.5C 74.3698,151.141 77.7031,150.474 80.5,147.5C 80.2914,148.922 79.7914,150.255 79,151.5C 77.082,152.542 75.2487,153.708 73.5,155C 74.9047,156.269 76.5714,156.769 78.5,156.5C 78.4456,158.632 77.4456,159.965 75.5,160.5C 75.5,159.5 75.5,158.5 75.5,157.5C 72.9505,157.561 71.4505,158.894 71,161.5C 70.6667,161.167 70.3333,160.833 70,160.5C 68.4157,161.861 66.5824,162.528 64.5,162.5C 64.5,161.5 64.5,160.5 64.5,159.5C 63.1667,159.5 61.8333,159.5 60.5,159.5C 60.6621,157.473 60.4955,155.473 60,153.5C 59.2747,155.158 58.108,155.658 56.5,155C 58.8776,154.026 58.5443,153.359 55.5,153C 54.1772,152.184 53.5106,151.017 53.5,149.5C 54.793,148.158 55.6264,146.491 56,144.5C 59.0424,141.432 61.2091,141.932 62.5,146C 63.1667,146.667 63.8333,146.667 64.5,146C 65.308,142.068 66.9747,138.568 69.5,135.5C 69.2291,133.62 69.8958,132.287 71.5,131.5 Z"/></g>
<g><path style="opacity:1" fill="#117a35" d="M 94.5,129.5 C 108.371,128.922 110.205,133.589 100,143.5C 98.0111,147.253 97.1778,151.253 97.5,155.5C 97.2436,157.792 97.5769,159.959 98.5,162C 98,162.167 97.5,162.333 97,162.5C 95.3745,161.711 93.8745,160.711 92.5,159.5C 90.4192,161.446 88.0859,161.446 85.5,159.5C 84.1924,157.359 82.6924,155.359 81,153.5C 79.955,154.373 79.1217,155.373 78.5,156.5C 76.5714,156.769 74.9047,156.269 73.5,155C 75.2487,153.708 77.082,152.542 79,151.5C 79.7914,150.255 80.2914,148.922 80.5,147.5C 80.8333,145.5 81.1667,143.5 81.5,141.5C 83.2807,134.719 87.6141,130.719 94.5,129.5 Z"/></g>
<g><path style="opacity:1" fill="#0f882f" d="M 95.5,130.5 C 98.5448,130.508 101.545,130.841 104.5,131.5C 104.094,136.227 101.928,139.894 98,142.5C 97.51,143.793 97.3433,145.127 97.5,146.5C 95.3618,146.297 93.6951,145.297 92.5,143.5C 88.9925,146.066 88.6591,145.566 91.5,142C 89.6161,141.784 87.9494,141.117 86.5,140C 88.1022,138.065 89.2689,135.899 90,133.5C 91.7189,132.131 93.5522,131.131 95.5,130.5 Z"/></g>
<g><path style="opacity:0.302" fill="#353f4a" d="M 169.5,51.5 C 172.394,52.8823 174.894,54.8823 177,57.5C 184.702,67.2452 190.536,77.9118 194.5,89.5C 198.457,102.523 198.457,115.857 194.5,129.5C 190.451,144.269 183.284,157.269 173,168.5C 171.028,170.232 168.861,171.565 166.5,172.5C 198.67,141.142 203.837,105.808 182,66.5C 178.302,61.0996 174.135,56.0996 169.5,51.5 Z"/></g>
<g><path style="opacity:0.522" fill="#336d49" d="M 94.5,129.5 C 98.6463,128.353 102.98,128.186 107.5,129C 108.578,129.674 109.245,130.674 109.5,132C 105.778,138.611 102.445,145.444 99.5,152.5C 100.401,156.058 102.401,158.725 105.5,160.5C 107.371,161.797 109.371,162.797 111.5,163.5C 104.6,164.343 99.9333,161.677 97.5,155.5C 97.1778,151.253 98.0111,147.253 100,143.5C 110.205,133.589 108.371,128.922 94.5,129.5 Z"/></g>
<g><path style="opacity:0.239" fill="#426651" d="M 45.5,95.5 C 45.5,96.8333 45.5,98.1667 45.5,99.5C 43.2857,101.995 42.1191,104.995 42,108.5C 41.3333,115.833 41.3333,123.167 42,130.5C 42.2784,131.416 42.7784,132.082 43.5,132.5C 44.3288,135.815 45.1621,139.148 46,142.5C 47.6881,145.646 49.5215,148.646 51.5,151.5C 51.7086,152.922 52.2086,154.255 53,155.5C 59.3685,162.036 65.8685,168.369 72.5,174.5C 51.5711,161.858 40.5711,143.192 39.5,118.5C 40.1836,113.158 41.0169,107.824 42,102.5C 42.6701,99.8261 43.8368,97.4927 45.5,95.5 Z"/></g>
<g><path style="opacity:1" fill="#0c2737" d="M 179.5,182.5 C 176.399,185.933 172.732,188.6 168.5,190.5C 169.29,189.206 170.29,188.039 171.5,187C 171,186.833 170.5,186.667 170,186.5C 167.859,188.488 165.359,189.821 162.5,190.5C 156.771,187.437 155.437,188.104 158.5,192.5C 156.563,193.158 154.73,193.491 153,193.5C 150.945,192.328 150.278,190.661 151,188.5C 153.167,187.667 154.667,186.167 155.5,184C 157.402,183.801 158.902,182.967 160,181.5C 160.333,181.833 160.667,182.167 161,182.5C 163.257,177.576 167.09,175.076 172.5,175C 172.5,173.667 172.5,172.333 172.5,171C 174.219,169.943 176.053,169.11 178,168.5C 179.069,165.792 180.236,163.125 181.5,160.5C 182.689,159.571 184.022,159.238 185.5,159.5C 185.33,158.178 185.663,157.011 186.5,156C 185.833,155.667 185.167,155.333 184.5,155C 189.081,151.976 192.248,147.81 194,142.5C 194.333,142.833 194.667,143.167 195,143.5C 196.628,142.181 196.461,140.848 194.5,139.5C 195.747,137.958 195.747,136.458 194.5,135C 195.99,133.366 197.324,133.699 198.5,136C 197.452,137.756 197.452,139.59 198.5,141.5C 196.389,146.603 194.889,151.937 194,157.5C 190.093,160.235 187.593,163.902 186.5,168.5C 185.07,168.579 183.736,168.246 182.5,167.5C 180.899,168.204 179.565,169.371 178.5,171C 179.833,172.667 179.833,174.333 178.5,176C 179.167,176.333 179.833,176.667 180.5,177C 179.695,178.972 178.361,180.472 176.5,181.5C 177.325,182.386 178.325,182.719 179.5,182.5 Z"/></g>
<g><path style="opacity:1" fill="#0e2233" d="M 14.5,89.5 C 15.4372,102.432 16.7706,115.599 18.5,129C 17.4009,132.094 16.9009,135.26 17,138.5C 17.6667,137.167 18.6667,136.167 20,135.5C 20.8346,139.179 21.668,142.845 22.5,146.5C 19.8559,148.697 20.1892,149.864 23.5,150C 23.1459,148.374 23.1459,146.541 23.5,144.5C 24.8333,144.5 26.1667,144.5 27.5,144.5C 27.5,145.833 27.5,147.167 27.5,148.5C 27.2969,150.044 26.6302,151.378 25.5,152.5C 25.8333,152.833 26.1667,153.167 26.5,153.5C 27.2164,152.689 28.0497,152.022 29,151.5C 31.1113,152.472 33.2779,153.305 35.5,154C 35.6638,156.699 35.8305,159.532 36,162.5C 37.7337,163.249 39.567,163.749 41.5,164C 41.3744,165.974 41.2078,168.141 41,170.5C 39.6651,171.08 38.4985,171.413 37.5,171.5C 36.7784,171.082 36.2784,170.416 36,169.5C 35.5488,171.929 34.7155,172.096 33.5,170C 33.8333,169.667 34.1667,169.333 34.5,169C 33.1667,167.667 31.8333,166.333 30.5,165C 29.0024,164.415 28.0024,164.915 27.5,166.5C 26.6618,166.158 26.3284,165.492 26.5,164.5C 13.0877,141.026 9.0877,116.026 14.5,89.5 Z"/></g>
<g><path style="opacity:1" fill="#0e7434" d="M 97.5,155.5 C 99.9333,161.677 104.6,164.343 111.5,163.5C 114.368,164.353 117.035,165.686 119.5,167.5C 122.474,170.297 123.141,173.63 121.5,177.5C 120.05,176.345 119.05,174.845 118.5,173C 112.787,172.149 107.454,170.149 102.5,167C 102.833,166.667 103.167,166.333 103.5,166C 95.9096,163.817 88.9096,164.983 82.5,169.5C 79.617,169.098 77.117,167.431 75,164.5C 73.9887,165.337 72.8221,165.67 71.5,165.5C 71.5,164.5 71.5,163.5 71.5,162.5C 73.3797,162.771 74.713,162.104 75.5,160.5C 77.4456,159.965 78.4456,158.632 78.5,156.5C 79.1217,155.373 79.955,154.373 81,153.5C 82.6924,155.359 84.1924,157.359 85.5,159.5C 88.0859,161.446 90.4192,161.446 92.5,159.5C 93.8745,160.711 95.3745,161.711 97,162.5C 97.5,162.333 98,162.167 98.5,162C 97.5769,159.959 97.2436,157.792 97.5,155.5 Z"/></g>
<g><path style="opacity:0.349" fill="#336243" d="M 182.5,124.5 C 177.817,148.043 165.15,165.876 144.5,178C 141.998,179.432 139.498,179.598 137,178.5C 138.552,169.785 135.719,162.952 128.5,158C 125.809,156.395 123.142,154.895 120.5,153.5C 127.81,153.815 133.143,157.148 136.5,163.5C 138.299,167.903 138.966,172.57 138.5,177.5C 145.493,176.984 150.827,173.817 154.5,168C 156.081,167.293 157.581,166.46 159,165.5C 159.424,162.975 160.59,160.975 162.5,159.5C 168.107,155.897 171.774,150.897 173.5,144.5C 177.037,138.048 179.537,131.048 181,123.5C 181.383,124.056 181.883,124.389 182.5,124.5 Z"/></g>
<g><path style="opacity:1" fill="#0b6e2f" d="M 162.5,159.5 C 160.59,160.975 159.424,162.975 159,165.5C 157.581,166.46 156.081,167.293 154.5,168C 150.827,173.817 145.493,176.984 138.5,177.5C 138.966,172.57 138.299,167.903 136.5,163.5C 140.947,165.761 142.614,169.428 141.5,174.5C 143.942,174.646 144.609,173.813 143.5,172C 145.833,171.667 148.167,171.333 150.5,171C 151.357,170.311 152.023,169.478 152.5,168.5C 150.577,167.692 148.577,167.192 146.5,167C 146.944,165.467 147.277,163.967 147.5,162.5C 150.251,163.341 152.418,162.341 154,159.5C 156.621,159.704 159.455,159.704 162.5,159.5 Z"/></g>
<g><path style="opacity:1" fill="#0a6930" d="M 43.5,132.5 C 46.827,138.118 50.1603,143.784 53.5,149.5C 53.5106,151.017 54.1772,152.184 55.5,153C 58.5443,153.359 58.8776,154.026 56.5,155C 58.108,155.658 59.2747,155.158 60,153.5C 60.4955,155.473 60.6621,157.473 60.5,159.5C 61.8333,159.5 63.1667,159.5 64.5,159.5C 64.5,160.5 64.5,161.5 64.5,162.5C 66.5824,162.528 68.4157,161.861 70,160.5C 70.3333,160.833 70.6667,161.167 71,161.5C 71.4505,158.894 72.9505,157.561 75.5,157.5C 75.5,158.5 75.5,159.5 75.5,160.5C 74.713,162.104 73.3797,162.771 71.5,162.5C 71.5,163.5 71.5,164.5 71.5,165.5C 72.8221,165.67 73.9887,165.337 75,164.5C 77.117,167.431 79.617,169.098 82.5,169.5C 88.9096,164.983 95.9096,163.817 103.5,166C 103.167,166.333 102.833,166.667 102.5,167C 107.454,170.149 112.787,172.149 118.5,173C 119.05,174.845 120.05,176.345 121.5,177.5C 123.141,173.63 122.474,170.297 119.5,167.5C 123.323,168.5 124.99,171 124.5,175C 125,178.668 123.666,181.334 120.5,183C 108.661,183.461 96.9944,182.128 85.5,179C 79.6002,176.108 73.9336,172.775 68.5,169C 62.7998,163.16 57.1331,157.327 51.5,151.5C 49.5215,148.646 47.6881,145.646 46,142.5C 45.1621,139.148 44.3288,135.815 43.5,132.5 Z"/></g>
<g><path style="opacity:0.584" fill="#2c5a46" d="M 51.5,151.5 C 57.1331,157.327 62.7998,163.16 68.5,169C 73.9336,172.775 79.6002,176.108 85.5,179C 96.9944,182.128 108.661,183.461 120.5,183C 123.666,181.334 125,178.668 124.5,175C 124.99,171 123.323,168.5 119.5,167.5C 117.035,165.686 114.368,164.353 111.5,163.5C 109.371,162.797 107.371,161.797 105.5,160.5C 113.083,161.209 119.583,164.209 125,169.5C 127.538,176.288 126.038,182.122 120.5,187C 106.646,187.163 93.3129,184.496 80.5,179C 77.3672,178.14 74.7005,176.64 72.5,174.5C 65.8685,168.369 59.3685,162.036 53,155.5C 52.2086,154.255 51.7086,152.922 51.5,151.5 Z"/></g>
<g><path style="opacity:1" fill="#0d2436" d="M 65.5,181.5 C 73.8941,185.96 82.5607,189.627 91.5,192.5C 91.6107,193.117 91.944,193.617 92.5,194C 107.637,195.797 122.637,194.964 137.5,191.5C 134.495,193.277 131.162,194.277 127.5,194.5C 127.285,198.636 125.785,199.636 123,197.5C 117.088,199.281 111.088,199.615 105,198.5C 101.157,199.238 97.6572,200.571 94.5,202.5C 91.2761,202.797 88.2761,202.13 85.5,200.5C 83.8087,202.256 81.8087,202.756 79.5,202C 79.0698,201.08 78.7365,200.247 78.5,199.5C 71.9914,199.61 65.9914,197.61 60.5,193.5C 57.76,190.435 55.0933,187.435 52.5,184.5C 49.5463,183.008 46.8796,181.008 44.5,178.5C 43.6906,176.929 43.3573,175.262 43.5,173.5C 45.5,173.167 47.5,172.833 49.5,172.5C 49.1854,174.226 49.0187,175.893 49,177.5C 53.6915,180.228 58.1915,183.228 62.5,186.5C 64.437,187.158 66.2703,187.491 68,187.5C 68.0283,185.213 67.195,183.213 65.5,181.5 Z"/></g>
<g><path style="opacity:0.296" fill="#33414c" d="M 138.5,189.5 C 138.167,190.167 137.833,190.833 137.5,191.5C 122.637,194.964 107.637,195.797 92.5,194C 91.944,193.617 91.6107,193.117 91.5,192.5C 107.401,194.543 123.068,193.543 138.5,189.5 Z"/></g>
<g><path style="opacity:1" fill="#0b2637" d="M 137.5,191.5 C 140.079,191.083 142.246,191.75 144,193.5C 144.333,193.167 144.667,192.833 145,192.5C 146.435,194.211 148.269,195.378 150.5,196C 147.728,197.057 145.395,198.557 143.5,200.5C 142.365,202.088 141.031,202.421 139.5,201.5C 132.763,203.846 125.763,205.18 118.5,205.5C 116.36,204.894 114.193,205.227 112,206.5C 106.001,205.925 100.168,204.592 94.5,202.5C 97.6572,200.571 101.157,199.238 105,198.5C 111.088,199.615 117.088,199.281 123,197.5C 125.785,199.636 127.285,198.636 127.5,194.5C 131.162,194.277 134.495,193.277 137.5,191.5 Z"/></g>
<g><path style="opacity:0.999" fill="#111d2f" d="M 37.5,171.5 C 39.002,173.175 40.3353,175.008 41.5,177C 41.9289,179.092 43.2622,181.092 45.5,183C 47.7314,183.622 49.5648,184.789 51,186.5C 51.2784,185.584 51.7784,184.918 52.5,184.5C 55.0933,187.435 57.76,190.435 60.5,193.5C 65.9914,197.61 71.9914,199.61 78.5,199.5C 78.7365,200.247 79.0698,201.08 79.5,202C 81.8087,202.756 83.8087,202.256 85.5,200.5C 88.2761,202.13 91.2761,202.797 94.5,202.5C 100.168,204.592 106.001,205.925 112,206.5C 114.193,205.227 116.36,204.894 118.5,205.5C 125.763,205.18 132.763,203.846 139.5,201.5C 141.031,202.421 142.365,202.088 143.5,200.5C 148.062,199.424 152.396,197.757 156.5,195.5C 157.696,195.846 157.696,196.346 156.5,197C 146.116,201.959 135.449,205.792 124.5,208.5C 83.925,213.376 51.5917,199.376 27.5,166.5C 28.0024,164.915 29.0024,164.415 30.5,165C 31.8333,166.333 33.1667,167.667 34.5,169C 34.1667,169.333 33.8333,169.667 33.5,170C 34.7155,172.096 35.5488,171.929 36,169.5C 36.2784,170.416 36.7784,171.082 37.5,171.5 Z"/></g>
</svg>
